<?xml version="1.0" encoding="UTF-8"?>
<svg version="1.1" xmlns="http://www.w3.org/2000/svg" width="265" height="267" viewBox="0 0 265 267" preserveAspectRatio="xMidYMid slice">
<path d="M0 0 C87.45 0 174.9 0 265 0 C265 88.11 265 176.22 265 267 C177.55 267 90.1 267 0 267 C0 178.89 0 90.78 0 0 Z " fill="none" transform="translate(0,0)"/>
<path d="M0 0 C0.99004668 1.96174501 1.9608891 3.90843231 2.82421875 5.9296875 C6.05521862 13.21040213 10.70598549 17.26112803 18.0382843 20.34529114 C21.24088987 21.41413829 24.32521433 21.44428141 27.68359375 21.51171875 C28.96548584 21.54483154 30.24737793 21.57794434 31.56811523 21.61206055 C33.97846069 21.64940308 33.97846069 21.64940308 36.4375 21.6875 C44.1409375 21.8421875 44.1409375 21.8421875 52 22 C52 39.16 52 56.32 52 74 C57.64270996 73.97381592 63.28541992 73.94763184 69.09912109 73.9206543 C87.73881527 73.83782004 106.37851668 73.78232711 125.01834679 73.74093914 C136.32010669 73.71517672 147.62169201 73.68006355 158.92333984 73.62280273 C168.7758676 73.57290788 178.62826889 73.54069472 188.48091948 73.52955753 C193.69606093 73.52304912 198.91084063 73.50779315 204.12586594 73.47134972 C209.03919534 73.43729427 213.95201558 73.42696634 218.86545181 73.43446159 C220.66411866 73.43309131 222.46280337 73.42321589 224.2613678 73.40397263 C234.80638063 73.29672749 243.97656089 73.39098019 252.12126732 80.97532177 C257.46765441 86.5673449 260.11269258 92.03655867 260.5 99.8125 C260.28055361 107.1273797 258.03625595 112.63344006 253.1328125 118.0703125 C246.27381426 124.44891398 240.03656029 126.45412062 230.86672974 126.38768005 C229.96871734 126.39306559 229.07070493 126.39845113 228.14548004 126.40399987 C225.14778976 126.41826394 222.15054203 126.41117947 219.15283203 126.40405273 C216.99893845 126.40975713 214.8450479 126.41672166 212.69116211 126.42485046 C206.84813986 126.44278996 201.00526772 126.44161186 195.1622262 126.43590808 C190.28152761 126.43281715 185.4008579 126.43890769 180.52016342 126.44494683 C169.0041405 126.45899328 157.48819175 126.45742995 145.97216797 126.44604492 C134.0984335 126.43456552 122.22492495 126.44863625 110.35122025 126.4754414 C100.15058208 126.49760593 89.95001478 126.504234 79.74935424 126.49836498 C73.65975337 126.4949958 67.57029729 126.49740802 61.48071671 126.51461601 C55.75310632 126.53009474 50.02583026 126.52611895 44.29823303 126.50731087 C42.19923338 126.50362749 40.10020891 126.50672608 38.00123215 126.51719666 C35.1295171 126.5304254 32.25890578 126.51884209 29.38723755 126.50120544 C28.14971023 126.51561295 28.14971023 126.51561295 26.88718235 126.53031152 C19.58705568 126.4384523 12.39917012 124.15611114 7.1875 118.8125 C6.66542969 118.30332031 6.14335937 117.79414063 5.60546875 117.26953125 C0.63131126 110.23793635 -0.58127381 103.72666477 -0.45410156 95.24780273 C-0.45468567 94.21261002 -0.45526978 93.1774173 -0.45587158 92.1108551 C-0.45310374 88.7180834 -0.42207253 85.32621036 -0.390625 81.93359375 C-0.38315801 79.56991557 -0.37746724 77.20623116 -0.37347412 74.84254456 C-0.35825404 68.64300225 -0.31900308 62.44383906 -0.2746582 56.2444458 C-0.23362742 49.90976081 -0.21544643 43.57501415 -0.1953125 37.24023438 C-0.15250563 24.82665701 -0.08429801 12.41336012 0 0 Z " fill="#0F9D58" transform="translate(2,137)"/>
<path d="M0 0 C0.89901568 -0.00694553 1.79803137 -0.01389106 2.72428995 -0.02104706 C5.71355122 -0.03923062 8.70201106 -0.02907687 11.69129944 -0.01878357 C13.8438679 -0.02584639 15.9964314 -0.03459294 18.14898682 -0.04489136 C23.97959956 -0.06735389 29.80994045 -0.06445287 35.64057994 -0.05556989 C40.51383631 -0.05045245 45.38704193 -0.0577587 50.26029307 -0.06504196 C61.75915039 -0.08203097 73.25787496 -0.07848503 84.75672913 -0.06175232 C96.60781489 -0.04482974 108.45853234 -0.06066996 120.30957788 -0.0929752 C130.49669551 -0.1196896 140.68369863 -0.12694213 150.87084776 -0.11846012 C156.94985954 -0.11353664 163.02864972 -0.11571557 169.10763359 -0.13624763 C174.82467341 -0.15463369 180.5411843 -0.14860971 186.25819588 -0.12404823 C188.35193749 -0.1190498 190.4457196 -0.12250483 192.53942871 -0.13519669 C214.46537629 -0.25755868 214.46537629 -0.25755868 222.74330044 7.48973751 C228.10685808 13.06692986 230.74578854 18.55415628 231.13294983 26.3271637 C230.91350344 33.6420434 228.66920578 39.14810375 223.76576233 44.5849762 C216.91068895 50.9599277 210.67119022 52.96798868 201.50640869 52.90907288 C200.16044844 52.91820953 200.16044844 52.91820953 198.78729707 52.92753077 C195.79195165 52.94412924 192.79703281 52.9393894 189.801651 52.93458557 C187.64937907 52.94192777 185.49711107 52.95051443 183.34484863 52.96025085 C177.50590005 52.98246081 171.66709262 52.98539774 165.8281076 52.98350334 C160.94998686 52.9833836 156.071896 52.99194915 151.19378358 53.00028086 C139.68251858 53.01951348 128.1713261 53.02239941 116.66004944 53.01564026 C104.79424794 53.00900097 92.92875741 53.03185989 81.06301898 53.06895399 C70.86745864 53.09966758 60.67199824 53.11100916 50.47639257 53.10711718 C44.39063196 53.10505124 38.3051133 53.11050525 32.21939659 53.13500977 C26.49419378 53.15730116 20.76949583 53.15537864 15.04429054 53.13508224 C12.94731884 53.13167637 10.850313 53.13674296 8.75338745 53.15106583 C-12.99742945 53.28933957 -12.99742945 53.28933957 -21.4772768 45.60153961 C-27.16961636 39.8792861 -29.40994279 33.4808002 -29.80455017 25.5146637 C-29.50701823 17.51849268 -26.12721257 11.74976691 -20.63658142 6.12013245 C-14.1199379 1.51025209 -7.88269477 -0.07893277 0 0 Z " fill="#DA4437" transform="translate(31.367050170898438,2.4853363037109375)"/>
<path d="M0 0 C1.34596025 -0.00913666 1.34596025 -0.00913666 2.71911162 -0.01845789 C5.71445704 -0.03505636 8.70937588 -0.03031653 11.70475769 -0.0255127 C13.85702963 -0.03285489 16.00929762 -0.04144156 18.16156006 -0.05117798 C24.00050864 -0.07338793 29.83931607 -0.07632486 35.6783011 -0.07443047 C40.55642183 -0.07431073 45.43451269 -0.08287627 50.31262511 -0.09120798 C61.82389011 -0.1104406 73.33508259 -0.11332653 84.84635925 -0.10656738 C96.71216075 -0.0999281 108.57765128 -0.12278702 120.44338971 -0.15988111 C130.63895006 -0.19059471 140.83441045 -0.20193628 151.03001612 -0.1980443 C157.11577673 -0.19597836 163.20129539 -0.20143237 169.2870121 -0.22593689 C175.01221491 -0.24822829 180.73691286 -0.24630577 186.46211815 -0.22600937 C188.55908985 -0.2226035 190.65609569 -0.22767008 192.75302124 -0.24199295 C214.70247079 -0.38152943 214.70247079 -0.38152943 222.98368549 7.36954498 C228.34751164 12.94645615 230.98630227 18.43399611 231.37345886 26.20690918 C231.15401247 33.52178888 228.90971481 39.02784924 224.00627136 44.46472168 C217.15119799 50.83967318 210.91169926 52.84773417 201.74691772 52.78881836 C200.40095747 52.79795501 200.40095747 52.79795501 199.0278061 52.80727625 C196.03246069 52.82387472 193.03754184 52.81913489 190.04216003 52.81433105 C187.8898881 52.82167325 185.7376201 52.83025992 183.58535767 52.83999634 C177.74640908 52.86220629 171.90760165 52.86514322 166.06861663 52.86324883 C161.1904959 52.86312909 156.31240503 52.87169463 151.43429261 52.88002634 C139.92302762 52.89925896 128.41183513 52.90214489 116.90055847 52.89538574 C105.03475697 52.88874646 93.16926645 52.91160538 81.30352801 52.94869947 C71.10796767 52.97941307 60.91250727 52.99075464 50.7169016 52.98686266 C44.63114099 52.98479672 38.54562233 52.99025073 32.45990562 53.01475525 C26.73470282 53.03704665 21.01000486 53.03512413 15.28479958 53.01482773 C13.18782788 53.01142185 11.09082203 53.01648844 8.99389648 53.03081131 C-12.75692042 53.16908505 -12.75692042 53.16908505 -21.23676777 45.4812851 C-26.90469346 39.78357376 -29.14290521 33.38109784 -29.62654114 25.45690918 C-29.37634683 18.74336197 -26.72123182 13.28222392 -22.25935364 8.31628418 C-15.39099453 1.9557026 -9.16879206 -0.05894159 0 0 Z " fill="#F3B400" transform="translate(31.126541137695313,106.6055908203125)"/>
<path d="M0 0 C2 4 2 4 2.82421875 5.9296875 C6.05521862 13.21040213 10.70598549 17.26112803 18.0382843 20.34529114 C21.24088987 21.41413829 24.32521433 21.44428141 27.68359375 21.51171875 C28.96548584 21.54483154 30.24737793 21.57794434 31.56811523 21.61206055 C33.97846069 21.64940308 33.97846069 21.64940308 36.4375 21.6875 C44.1409375 21.8421875 44.1409375 21.8421875 52 22 C52 39.16 52 56.32 52 74 C36.625 74.1875 36.625 74.1875 31.83837891 74.20776367 C22.75455309 74.40818441 15.05879316 75.34429273 8.10644531 81.74267578 C4.64488433 85.40238431 2.72514153 89.30378138 1 94 C0.67 94 0.34 94 0 94 C0 62.98 0 31.96 0 0 Z " fill="#4285F3" transform="translate(2,137)"/>
<path d="M0 0 C2 4 2 4 2.82421875 5.9296875 C6.05521862 13.21040213 10.70598549 17.26112803 18.0382843 20.34529114 C21.24088987 21.41413829 24.32521433 21.44428141 27.68359375 21.51171875 C28.96548584 21.54483154 30.24737793 21.57794434 31.56811523 21.61206055 C33.97846069 21.64940308 33.97846069 21.64940308 36.4375 21.6875 C44.1409375 21.8421875 44.1409375 21.8421875 52 22 C52 39.16 52 56.32 52 74 C36.625 74.1875 36.625 74.1875 31.83837891 74.20776367 C22.75455309 74.40818441 15.05879316 75.34429273 8.10644531 81.74267578 C4.64488433 85.40238431 2.72514153 89.30378138 1 94 C0.67 94 0.34 94 0 94 C0 62.98 0 31.96 0 0 Z " fill="#4284F3" transform="translate(2,33)"/>
</svg>
